<!-- CC0 License -->
<!-- https://www.svgrepo.com/svg/35713/skull -->
<?xml version="1.0" encoding="iso-8859-1"?>
<!-- Generator: Adobe Illustrator 19.0.0, SVG Export Plug-In . SVG Version: 6.00 Build 0)  -->
<svg version="1.1" id="Layer_1" xmlns="http://www.w3.org/2000/svg" xmlns:xlink="http://www.w3.org/1999/xlink" x="0px" y="0px"
	 viewBox="0 0 226.452 226.452" style="enable-background:new 0 0 226.452 226.452;" xml:space="preserve" width="24px" height="24px">
<g>
	<g>
		<g>
			<path d="M113.226,0C58.74,0,14.411,43.405,14.411,96.757c0,36.036,20.92,69.514,53.525,86.017v39.561
				c0,2.274,1.842,4.117,4.117,4.117h86.463c2.276,0,4.117-1.844,4.117-4.117v-41.766c30.542-17.287,49.408-49.175,49.408-83.812
				C212.041,43.405,167.712,0,113.226,0z M156.578,174.501c-1.343,0.716-2.179,2.113-2.179,3.633v40.084H76.17v-38.013
				c0-1.592-0.917-3.042-2.356-3.721c-31.085-14.704-51.169-45.998-51.169-79.727c0-48.811,40.634-88.522,90.581-88.522
				s90.581,39.711,90.581,88.522C203.807,129.162,185.709,158.953,156.578,174.501z"/>
			<path d="M104.899,101.552c-1.347-6.942-5.686-13.544-11.897-18.116c-6.409-4.716-14.065-6.65-20.973-5.303
				c-9.831,1.91-17.149,12.364-19.835,16.771c-5.464,8.946-7.929,18.373-6.598,25.212c0.985,5.087,4.536,11.377,15.826,12.466
				c1.222,0.119,2.481,0.173,3.76,0.173c5.476,0,11.387-0.979,17.056-2.083c7.121-1.383,13.361-4.869,17.571-9.815
				C104.452,115.403,106.262,108.546,104.899,101.552z M93.536,115.52c-3.004,3.53-7.575,6.041-12.867,7.071
				c-6.389,1.241-13.04,2.314-18.46,1.795c-6.642-0.641-8.042-3.311-8.532-5.84c-0.921-4.732,1.255-12.33,5.541-19.352
				c4.286-7.018,9.931-12.113,14.378-12.979c0.933-0.181,1.886-0.269,2.859-0.269c3.892,0,8.014,1.437,11.668,4.123
				c4.564,3.359,7.732,8.118,8.693,13.054C97.935,108.871,95.651,113.037,93.536,115.52z"/>
			<path d="M174.258,94.903c-2.686-4.407-10.004-14.861-19.835-16.771c-6.912-1.355-14.563,0.587-20.973,5.303
				c-6.212,4.572-10.551,11.174-11.897,18.114c-1.363,6.996,0.446,13.854,5.09,19.308c4.21,4.946,10.45,8.432,17.571,9.815
				c5.67,1.104,11.58,2.083,17.056,2.083c1.278,0,2.537-0.054,3.76-0.173c11.29-1.089,14.841-7.38,15.826-12.464
				C182.187,113.276,179.722,103.85,174.258,94.903z M172.774,118.548c-0.49,2.527-1.89,5.197-8.532,5.838
				c-5.42,0.515-12.07-0.555-18.46-1.795c-5.292-1.029-9.863-3.54-12.867-7.071c-2.115-2.483-4.399-6.648-3.281-12.4
				c0.961-4.933,4.129-9.692,8.693-13.051c4.568-3.361,9.859-4.76,14.527-3.854c4.447,0.866,10.092,5.961,14.378,12.979
				C171.52,106.216,173.695,113.813,172.774,118.548z"/>
			<path d="M92.639,185.279c-2.276,0-4.117,1.844-4.117,4.117v20.587c0,2.274,1.842,4.117,4.117,4.117
				c2.275,0,4.117-1.844,4.117-4.117v-20.587C96.757,187.122,94.915,185.279,92.639,185.279z"/>
			<path d="M133.812,185.279c-2.276,0-4.117,1.844-4.117,4.117v20.587c0,2.274,1.842,4.117,4.117,4.117s4.117-1.844,4.117-4.117
				v-20.587C137.93,187.122,136.088,185.279,133.812,185.279z"/>
			<path d="M113.226,185.279c-2.276,0-4.117,1.844-4.117,4.117v20.587c0,2.274,1.842,4.117,4.117,4.117
				c2.275,0,4.117-1.844,4.117-4.117v-20.587C117.343,187.122,115.502,185.279,113.226,185.279z"/>
			<rect x="100.874" y="135.871" width="8.235" height="16.469"/>
			<rect x="117.343" y="135.871" width="8.235" height="16.469"/>
		</g>
	</g>
</g>
</svg>
